<?xml version="1.0" standalone="no"?>
<!DOCTYPE svg PUBLIC "-//W3C//DTD SVG 20010904//EN"
 "http://www.w3.org/TR/2001/REC-SVG-20010904/DTD/svg10.dtd">
<svg version="1.0" xmlns="http://www.w3.org/2000/svg"
 width="512.000000pt" height="512.000000pt" viewBox="0 0 512.000000 512.000000"
 preserveAspectRatio="xMidYMid meet">
<metadata>
Created by potrace 1.14, written by Peter Selinger 2001-2017
</metadata>
<g transform="translate(0.000000,512.000000) scale(0.100000,-0.100000)"
fill="#000000" stroke="none">
<path d="M2320 5110 c-491 -47 -981 -247 -1365 -557 -129 -104 -340 -321 -433
-445 -274 -365 -443 -782 -504 -1238 -16 -123 -16 -509 0 -625 65 -459 233
-873 501 -1230 92 -122 304 -341 426 -440 368 -299 822 -493 1305 -557 123
-16 509 -16 625 0 459 65 873 233 1230 501 122 92 341 304 440 426 299 368
493 822 557 1305 16 123 16 509 0 625 -65 459 -233 873 -501 1230 -92 122
-304 341 -426 440 -365 297 -826 494 -1295 555 -115 15 -443 21 -560 10z m815
-1080 c277 -18 380 -94 362 -265 -11 -106 -70 -158 -199 -174 -40 -5 -309 -12
-597 -15 -288 -3 -525 -7 -526 -8 -1 -2 -4 -144 -6 -317 l-4 -314 480 -2 c456
-2 485 -4 572 -25 101 -24 160 -58 193 -113 24 -39 28 -160 6 -211 -18 -42
-68 -80 -126 -94 -25 -6 -56 -14 -70 -18 -14 -4 -259 -10 -545 -13 l-520 -6
-3 -392 -2 -393 522 0 c655 0 704 -7 780 -101 57 -71 48 -198 -20 -271 -63
-67 -141 -88 -367 -100 -277 -15 -1246 -2 -1291 17 -72 30 -127 121 -141 231
-11 87 2 2109 15 2261 8 97 14 122 45 186 30 64 42 79 84 104 48 28 49 28 263
33 362 10 958 10 1095 0z"/>
</g>
</svg>
